<svg xmlns="http://www.w3.org/2000/svg" width="14.559" height="19.25" viewBox="0 0 14.559 19.25">
  <g id="Group_190" data-name="Group 190" transform="translate(-1056.191 -131.306)">
    <path id="Icon_awesome-sort-down" data-name="Icon awesome-sort-down" d="M14.525,20.25H2.415a1.223,1.223,0,0,0-.865,2.086l6.055,6.055a1.216,1.216,0,0,0,1.725,0l6.06-6.055A1.223,1.223,0,0,0,14.525,20.25Z" transform="translate(1055 121.806)" fill="rgba(0,71,187,0.75)"/>
    <path id="Icon_awesome-sort-down-2" data-name="Icon awesome-sort-down" d="M14.525,28.75H2.415a1.223,1.223,0,0,1-.865-2.086l6.055-6.055a1.216,1.216,0,0,1,1.725,0l6.06,6.055A1.223,1.223,0,0,1,14.525,28.75Z" transform="translate(1055 111.056)" fill="#c6c8ca"/>
  </g>
</svg>
