<svg xmlns="http://www.w3.org/2000/svg" width="113.6" height="60.006" viewBox="0 0 113.6 60.006"><defs><style>.a{fill:#0047af;}.b{fill:#ff9700;}</style></defs><g transform="translate(-548.7 -566.494)"><path class="a" d="M608.3,569c0-1.8.3-2.1,1.9-2.1s1.9.2,1.9,2.1v18.7a1.613,1.613,0,0,0,1.5,1.8H627c1.2,0,1.4-1,1.4-1.8v-6.6c0-1.9.3-2.1,1.9-2.1s1.9.2,1.9,2.1v6.6a1.613,1.613,0,0,0,1.5,1.8h9c1.2,0,1-1,1-1.8v-6.6c0-1.9.8-2.1,2.4-2.1s2.4.2,2.4,2.1v6.6c0,.9,0,1.8,1.2,1.8h6.8a1.618,1.618,0,0,0,1.6-1.8v-6.6c0-1.9.3-2.1,1.9-2.1s1.9.2,1.9,2.1v6.6c0,4-1,4.8-4.8,4.8H613c-3.8,0-4.7-.9-4.7-4.8ZM580,567.6c1,1.3,1,1.7-.5,2.8l-10.2,8.2a.486.486,0,0,0,.3.9h14.5c3.5,0,4,.4,4,3.8v4.3c0,.9.4,1.8,1.4,1.8h9c1.1,0,1-1,1-1.8V581c0-1.9.8-2.1,2.4-2.1s2.4.2,2.4,2.1v6.6c0,4-1.2,4.8-5.1,4.8H548.7c.3-2,2.5-3,5.4-3h28.7a1.342,1.342,0,0,0,1.4-1.5v-4.3c0-.8-.4-1.2-1.4-1.2H566.9c-2.7,0-3.5-1.5-3.5-2.8a4.162,4.162,0,0,1,1.9-3l11.9-9.4c1.5-1,1.8-1,2.8.4m15.7,32.5-1,1.1c-1.2,1.2-2.2,1.3-3.2.4q-1.5-1.5.3-3.3l1.1-1.1c1.2-1.2,2.2-1.3,3.2-.4.9,1,.8,2.1-.4,3.3"/><path class="b" d="M596.4,626.5c2.5,0,3.3-.8,3.3-3.3v-1.5c0-2.6-.7-3.2-3.3-3.2h-8.2c-.1,0-.2,0-.2-.1,0-.3,3.5-2.6,10.2-2.8,1.1,0,1.2-.5,1.2-1.5,0-.9-.3-1.4-1.5-1.4-8.8,0-13.9,4.6-13.9,7,0,1.1.6,1.8,2.9,1.8h8.7c.7,0,.3,0,.3.5v.9c0,.5.3.6-.3.6H583.9c-2.1,0-3.7,1-4,3Zm43.9-17.4-.7.7c-1,1-1.7,1.1-2.5.3s-.7-1.7.3-2.6l.7-.8c1-.9,1.7-1.1,2.5-.3a1.843,1.843,0,0,1-.3,2.7m-37.2,17.4c-1.2,0-2.1-.4-2.1-2.1,0-7,7.2-11.7,10.1-11.7,1,0,1.2.7,1.2,1.6v4.4c0,1.2,0,1.6-1.4,1.6-1.3,0-1.4-.4-1.4-1.6v-2.3a.1.1,0,0,1,.1-.1c-1.2,0-5.3,3.7-5.3,6.7,0,.3.1.5.9.5h8.4c.7,0,.7-.2.7-.8v-12c0-1.4.7-1.7,1.9-1.7s1.9.2,1.9,1.7v12c0,2.9-1.2,3.8-4,3.8h-11Zm20.2,0c-2.8,0-3.5-.9-3.5-3.8V603.2c0-1.4.2-1.6,1.4-1.6s1.4.2,1.4,1.6v19.5c0,.6.4.8,1.1.8H632c.8,0,.8-.2.8-.5,0-1.4-1.9-5.5-7.8-7.3-1.1-.3-1.2-.9-.8-1.9.4-1.1,1.1-1.1,1.9-.9,6.9,2.1,9.9,6.9,9.9,11.5a1.846,1.846,0,0,1-2.1,2.1H623.3Zm14.7-2V616c0-.2.2-.5-.1-.5h-.6c-1.2,0-1.6-.4-1.6-1.5s.4-1.5,1.6-1.5h2.6c.9,0,1.1.7,1.1,1.7v10.6c0,1.4-.3,1.7-1.4,1.7-1.2,0-1.5-.2-1.5-1.7v-.3Zm5.2-.1c0-5.1,4.2-11.7,12.8-11.7,1,0,1.2.7,1.2,1.6v4.4c0,1.2-.1,1.6-1.4,1.6s-1.4-.4-1.4-1.6v-2.3c0-.4,0-.5-.2-.5-4.6,0-7.9,4.9-7.9,7.1,0,.3.1.5.9.5h11.1c2.1,0,3.7,1,4,3H645.5c-1.3,0-2.3-.4-2.3-2.1"/></g></svg>